<svg xmlns="http://www.w3.org/2000/svg" viewBox="0 0 512 512" role="img" aria-label="Oblivio Duorum sigil">
  <rect width="512" height="512" rx="96" fill="#07080d"/>
  <circle cx="256" cy="232" r="145" fill="none" stroke="#f3ead8" stroke-width="16"/>
  <path d="M256 68v86M256 314v118M101 232h88M323 232h88" fill="none" stroke="#f3ead8" stroke-width="12" stroke-linecap="round"/>
  <path d="M214 390V194c0-28 18-48 42-48s42 20 42 48v196" fill="none" stroke="#f3ead8" stroke-width="18" stroke-linecap="round" stroke-linejoin="round"/>
  <path d="M212 390h88M196 414h120" fill="none" stroke="#f3ead8" stroke-width="14" stroke-linecap="round"/>
  <path d="M238 386v-64c0-17 8-31 18-31s18 14 18 31v64" fill="none" stroke="#d2a94e" stroke-width="13" stroke-linecap="round" stroke-linejoin="round"/>
  <circle cx="256" cy="210" r="14" fill="#07080d" stroke="#f3ead8" stroke-width="10"/>
  <circle cx="101" cy="232" r="14" fill="#07080d" stroke="#f3ead8" stroke-width="10"/>
  <circle cx="411" cy="232" r="14" fill="#07080d" stroke="#f3ead8" stroke-width="10"/>
  <g fill="#d2a94e">
    <circle cx="256" cy="50" r="12"/><circle cx="256" cy="462" r="12"/><circle cx="76" cy="232" r="11"/><circle cx="436" cy="232" r="11"/>
    <circle cx="180" cy="188" r="4"/><circle cx="196" cy="173" r="4"/><circle cx="216" cy="162" r="4"/><circle cx="238" cy="156" r="4"/><circle cx="262" cy="156" r="4"/><circle cx="284" cy="162" r="4"/><circle cx="304" cy="174" r="4"/><circle cx="320" cy="189" r="4"/>
  </g>
</svg>
