<svg xmlns="http://www.w3.org/2000/svg" viewBox="0 0 64 64">
  <defs>
    <radialGradient id="g" cx="50%" cy="42%" r="70%"><stop offset="0" stop-color="#174f95"/><stop offset="0.58" stop-color="#0b2e63"/><stop offset="1" stop-color="#071b38"/></radialGradient>
    <filter id="glow" x="-50%" y="-50%" width="200%" height="200%"><feGaussianBlur stdDeviation="1.4" result="b"/><feMerge><feMergeNode in="b"/><feMergeNode in="SourceGraphic"/></feMerge></filter>
  </defs>
  <rect width="64" height="64" rx="18" fill="url(#g)"/>
  <path d="M12 32C12 20.95 20.95 12 32 12s20 8.95 20 20-8.95 20-20 20S12 43.05 12 32Z" fill="none" stroke="#d9efff" stroke-opacity=".34" stroke-width="1.4"/>
  <path d="M20 45 44 19" stroke="#7ed4ff" stroke-width="3.2" stroke-linecap="round" filter="url(#glow)"/>
  <path d="M26 20v24" stroke="#f7fbff" stroke-width="4" stroke-linecap="round"/>
  <path d="M38 20c6 0 10 5.2 10 12s-4 12-10 12-10-5.2-10-12 4-12 10-12Z" fill="none" stroke="#f7fbff" stroke-width="3.8"/>
  <g fill="#7ed4ff" filter="url(#glow)"><circle cx="32" cy="32" r="2.3"/><circle cx="19" cy="23" r="1.7"/><circle cx="45" cy="41" r="1.7"/><circle cx="47" cy="24" r="1.4"/><circle cx="18" cy="42" r="1.4"/></g>
  <path d="M32 32 19 23M32 32l15-8M32 32l13 9M32 32 18 42" stroke="#7ed4ff" stroke-opacity=".62" stroke-width="1.1"/>
</svg>